<svg version="1.2" xmlns="http://www.w3.org/2000/svg" viewBox="0 0 1280 720" width="1280" height="720"><style>.a{fill:#d30000}</style><path class="a" d="m305 371.4v0.6q2.4 1.2 5.4 3.6 3.6 2.4 5.4 4.8 4.2 4.2 6 8.4 2.4 4.2 3 12.6 1.2 7.8 1.2 22.8 0 14.4 0 40.2 0 11.4 0 21.6 0 10.2-0.6 18.6 0 7.8 0 13.2 0 4.8 0 5.4l-0.6 3.6h-106.8l-0.6-3q-0.6-1.2-0.6-21 0.6-19.8 1.2-46.2 0.6-13.2 0.6-25.2 0.6-12.6 0.6-22.2 0-10.2-0.6-16.8 0-6.6 0-8.4-1.2-15.6-9-19.2-2.4-1.2-4.2-1.8-1.2-0.6-4.8 0.6-6 1.8-7.8 3.6-1.8 1.8-3 4.2-0.6 2.4-1.2 10.2-0.6 7.2-1.2 22.8 0 15.6 0 43.8 0 14.4-0.6 28.2 0 13.2 0 23.4 0 10.2-0.6 16.8 0 6 0 6.6l-0.6 3.6h-106.2l-1.2-3q0-1.2 0-18.6 0-18 0.6-40.8 0-12 0-25.8 0.6-13.8 0.6-27 0-13.2 0-25.2 0-12 0-21-0.6-37.8 0-55.8 1.2-18 4.2-24 3-6 10.8-11.4 7.8-5.4 16.2-7.2 1.8-0.6 16.2-1.2 14.4-0.6 33-1.2 19.2-0.6 33-0.6 14.4-0.6 15.6-1.2 10.8-3.6 13.2-12 1.2-3.6 1.2-9 0.6-5.4 0.6-19.8 0-18-1.2-24.6-0.6-6.6-4.2-11.4-3-4.8-8.4-5.4-4.8-1.2-21.6-1.8-14.4-0.6-16.8 0-2.4 0 0 1.2 9 4.8 13.2 12.6 1.8 4.2 2.4 7.2 0.6 3 1.2 11.4 0 8.4-0.6 11.4 0 3-1.8 7.8-3.6 12-13.8 16.8-6.6 3.6-27 6-20.4 1.8-43.2 1.8l-22.2-0.6v-73.8l-0.6-74.4h60q25.8 0 50.4 0.6 25.2 0 45.6 1.2 20.4 0.6 34.2 1.2 13.8 0.6 17.4 1.8 28.8 7.2 37.8 33 1.8 4.2 2.4 10.2 1.2 6 1.2 16.8 0.6 10.8 0.6 27.6 0.6 16.8 0.6 42.6 0 27 0 42.6 0 15-0.6 23.4-0.6 8.4-1.8 12.6-1.2 4.2-3.6 9.6-11.4 25.2-43.8 28.8-6 1.2-8.4 1.8-2.4 0.6 0.6 0.6 1.8 0 6 1.2 4.8 1.2 9.6 3 5.4 1.8 10.2 3.6 5.4 1.8 7.8 3zm316.8 122.4q0.6 6.6 0.6 12.6 0.6 6 0 9l-0.6 6.6-33 0.6q-23.4 0.6-49.2 1.2-25.2 0-47.4 0-21.6 0-37.2 0-15.6 0-19.2-0.6-9.6-1.2-19.8-4.2-10.2-3.6-16.8-7.8-10.2-6.6-17.4-15.6-7.2-9-15-24.6-4.8-10.2-7.2-18.6-2.4-9-3.6-19.2-0.6-3.6-1.2-15.6 0-12 0-28.2 0-16.2 0-34.8 0.6-18.6 1.2-36 0-13.8 0.6-22.2 0.6-9 1.2-15 1.2-6 3-10.8 2.4-5.4 5.4-12.6 10.2-22.8 26.4-37.2 16.8-14.4 42.6-23.4 10.2-3.6 19.8-5.4 9.6-1.8 24.6-3 63.6-4.2 102 31.8 19.8 18 28.2 43.2 1.8 6.6 3 12 1.2 5.4 1.8 13.8 1.2 7.8 1.2 21 0.6 12.6 0.6 33.6l0.6 52.2-55.8 0.6q-24.6 0.6-42.6 0.6-17.4 0-21-0.6-8.4-1.2-12-3-3.6-2.4-6.6-9l-3-6v-54h4.2q1.8-0.6 6-0.6 4.2 0 8.4-0.6l9.6-0.6v-19.8q0-10.8-0.6-17.4 0-7.2-1.2-10.8-1.2-4.2-3.6-6-2.4-1.8-6-3.6-4.2-1.2-10.2-0.6-5.4 0-8.4 2.4-1.2 1.2-2.4 3-1.2 1.2-2.4 2.4-0.6 1.2-1.2 4.2 0 2.4-0.6 9 0 6.6 0 19.8 0 12.6 0 34.8 0 63.6 1.2 66 1.2 2.4 6 4.2 1.8 0.6 3 1.2 1.8 0.6 6 1.2 4.8 0 13.2 0.6 9 0 24.6 0 17.4 0 27.6 0.6 10.8 0 17.4 0.6 6.6 0.6 10.2 1.8 4.2 1.2 9 3.6 18 9 25.8 25.2 7.8 15.6 10.2 48zm145.2-46.8h4.2v33.6q0 13.8 0 25.2 0 10.8-0.6 12.6l-0.6 5.4h-55.8q-19.8 0-31.2 0-11.4 0-17.4 0-5.4-0.6-7.8-1.2-1.8-0.6-3.6-1.2-2.4-1.2-4.2-1.2-1.2-0.6-2.4-4.8-0.6-4.8-1.2-16.2 0-11.4-0.6-34.8 0-23.4 0-61.2 0-38.4 0-96l-0.6-204 109.2 0.6v167.4q0 45.6 0 77.4 0.6 31.8 0.6 52.2 0 20.4 0 30 0.6 9 1.2 10.2 2.4 6 10.8 6zm151 0h4.2v33.6q0 13.8 0 25.2 0 10.8-0.6 12.6l-0.6 5.4h-55.8q-19.8 0-31.2 0-11.4 0-17.4 0-5.4-0.6-7.8-1.2-1.8-0.6-3.6-1.2-2.4-1.2-4.2-1.2-1.2-0.6-2.4-4.8-0.6-4.8-1.2-16.2 0-11.4-0.6-34.8 0-23.4 0-61.2 0-38.4 0-96l-0.6-204 109.2 0.6v167.4q0 45.6 0 77.4 0.6 31.8 0.6 52.2 0 20.4 0 30 0.6 9 1.2 10.2 2.4 6 10.8 6zm282.4-81.6v99q0 38.4 0 61.8 0 23.4-0.6 36.6-0.6 13.2-1.2 19.2-0.6 5.4-2.4 9.6-4.8 12-15.6 18.6-3.6 1.8-7.2 3-3.6 1.2-10.8 1.8-7.2 0.6-20.4 1.2-13.2 0-36.6 0h-105.6q-10.2 0-18.6 0-8.4-0.6-15-0.6-7.8-0.6-14.4-0.6-0.6 0-0.6-7.2 0-7.8 0-18.6 0-10.8 0-18 0.6-7.2 1.2-12 0.6-4.8 1.8-8.4 1.2-3.6 3-6.6 4.2-7.2 15-10.2 2.4-0.6 15.6-1.2 13.8-0.6 41.4-1.2l52.8-0.6 3-3.6q3-3 3-4.8 0-0.6-10.2-0.6-9.6-0.6-40.8-1.2-21-0.6-37.8-0.6-16.2-0.6-19.2-1.2-23.4-4.8-31.8-31.2-0.6-1.8-1.2-5.4 0-4.2-0.6-13.8 0-10.2 0-28.2 0-18 0-48.6l-0.6-90 40.2-1.2q15.6 0 24.6 0 9-0.6 13.8 0 5.4 0 8.4 0.6 3 0.6 6.6 1.8 6.6 2.4 10.8 6.6 4.2 3.6 6 10.8 0.6 1.8 0.6 16.2 0.6 13.8 1.2 31.8 0 15 0 24 0.6 9 0.6 13.8 0.6 4.8 0.6 7.2 0.6 1.8 1.2 3 1.2 2.4 2.4 3.6 1.8 1.2 4.8 2.4 3.6 0.6 8.4 1.2 5.4 0 13.8 0l20.4 0.6-4.8-3q-9.6-6.6-12-12.6-0.6-1.2-1.2-6.6 0-5.4 0-17.4 0-12-0.6-32.4 0-21 0-52.2v-105.6h108.6v85.2zm-237-75q-10.8-3.6-13.8-14.4-4.2-15.6-3-54.6v-26.4l55.2-0.6h55.2q0.6 0 0.6 14.4 0 14.4 0.6 34.2v48.6h-6q-25.2 0.6-41.4 0.6-16.2 0-26.4 0-9.6 0-14.4-0.6-4.2-0.6-6.6-1.2z"/></svg>